<?xml version="1.0" encoding="UTF-8"?>
<!-- Created by grConvert v0.1-0 -->
<svg xmlns="http://www.w3.org/2000/svg" xmlns:xlink="http://www.w3.org/1999/xlink" width="100pt" height="125pt" viewBox="0 0 100 125" version="1.1">
<g id="surface53">
<path style=" stroke:none;fill-rule:nonzero;fill:rgb(0%,0%,0%);fill-opacity:1;" d="M 61.867188 79.96875 C 61.867188 79.238281 62.59375 78.507812 63.6875 77.777344 C 65.085938 76.847656 65.546875 75.238281 65.738281 73.667969 C 65.796875 73.21875 65.84375 72.757812 65.84375 72.304688 C 65.84375 71.207031 66.574219 69.382812 68.035156 68.652344 C 69.496094 67.921875 70 65.730469 70 65.730469 C 70 65.730469 70 63.539062 70 62.445312 C 70 61.347656 71.640625 59.886719 73.101562 57.699219 C 74.558594 55.507812 72 55.871094 72 55.871094 C 72 55.871094 72 54.046875 72 52.953125 C 72 51.855469 75 52.222656 75 52.222656 L 75 47.113281 C 77 44.191406 74.277344 43.097656 74.277344 43.097656 C 73.183594 43.097656 73.824219 39.808594 73.824219 39.808594 C 73.027344 38.617188 71.492188 36.859375 69.855469 37.621094 C 69.378906 36.769531 68.925781 35.898438 68.421875 35.0625 C 67.785156 34.019531 66.234375 33.867188 65.632812 32.585938 C 65.121094 31.492188 65.734375 31.140625 66.480469 30.359375 C 66.6875 30.140625 68.527344 27.96875 68.804688 28.128906 C 67.703125 27.5 66.855469 26.433594 65.6875 25.925781 C 65.308594 25.757812 62.5 25.523438 62.601562 25.9375 L 61.871094 23.015625 C 60.046875 24.839844 59.683594 19 59.683594 19 C 58.816406 21.59375 56.351562 19.511719 54.746094 19.710938 C 53.519531 19.859375 52.5625 21.667969 52.015625 22.648438 C 50.5625 20.46875 49.832031 23.71875 49.824219 23.746094 C 49.527344 25.078125 50.339844 27.488281 47.839844 27.082031 C 46.316406 26.835938 45.808594 25.09375 45.808594 23.746094 C 45.078125 20.464844 42.160156 21.925781 41.429688 22.65625 C 39.820312 24.261719 36.746094 23.613281 34.777344 23.21875 C 33.867188 23.03125 32.933594 22.886719 32.035156 22.648438 C 30.476562 22.234375 30.664062 22.085938 29.617188 23.101562 C 28.824219 23.871094 23.90625 24.917969 23.90625 25.984375 C 23.90625 27.808594 22.808594 29.101562 22.808594 29.101562 C 21.351562 29.828125 21.351562 35 21.351562 35 L 22.515625 35 L 23.535156 34.117188 C 23.535156 34.117188 23.535156 34.410156 23.601562 34.960938 C 24.28125 37.011719 25.148438 40.015625 27.941406 39.640625 C 29.148438 40.835938 31.910156 43.601562 33.765625 43.097656 C 34.160156 47.371094 36.351562 51.214844 40.703125 52.230469 C 39.71875 52.695312 38.753906 53.195312 37.777344 53.683594 C 38.285156 55.085938 38.660156 56.695312 39.445312 57.957031 C 39.882812 58.660156 40.566406 59.058594 40.589844 59.820312 C 40.613281 60.566406 39.875 61.71875 39.605469 62.445312 C 40.210938 62.566406 40.820312 62.6875 41.429688 62.808594 C 40.773438 65.171875 40.316406 66.886719 42.148438 68.796875 C 43.070312 69.761719 44.507812 69.894531 45.589844 70.710938 C 46.945312 71.734375 47.652344 73.144531 48.460938 74.597656 C 49.589844 76.621094 50.589844 78.855469 52.015625 80.699219 C 46.730469 80.664062 46.496094 75.167969 43.632812 71.96875 C 41.972656 70.121094 38.15625 69.769531 37.757812 66.777344 C 37.640625 65.878906 38.222656 64.066406 38.507812 63.175781 C 37.898438 63.050781 37.289062 62.929688 36.683594 62.808594 C 36.949219 62.078125 37.679688 60.957031 37.65625 60.203125 C 37.636719 59.425781 36.984375 59.0625 36.535156 58.335938 C 35.746094 57.070312 35.367188 55.460938 34.859375 54.046875 C 35.832031 53.5625 36.800781 53.058594 37.78125 52.59375 C 33.472656 51.609375 31.175781 47.71875 30.851562 43.460938 C 29.585938 44.023438 28.277344 43.160156 27.320312 42.386719 C 27.011719 42.132812 25.261719 39.960938 25 39.992188 C 20.617188 40.539062 20.617188 34.332031 20.617188 34.332031 L 18.058594 36.15625 L 13.671875 36.523438 L 11.46875 34.695312 C 8.914062 38.347656 7.066406 36.886719 7.066406 36.886719 L 4.101562 39.441406 L 2 41.269531 L 2 44.921875 L 4.730469 46.746094 L 4.179688 54.414062 L 2.34375 56.238281 L 4.144531 63.539062 C 10.714844 56.601562 22.351562 60.253906 22.351562 60.253906 C 24.453125 59.523438 31.9375 70.84375 31.9375 70.84375 C 34.125 77.046875 38.507812 75.953125 38.507812 75.953125 C 40.820312 79.039062 45.121094 80.308594 47.464844 80.792969 L 50.921875 83.617188 L 52.746094 87.636719 L 54.9375 88 L 56.761719 85.808594 L 57.128906 84.714844 L 57.488281 83.984375 C 57.488281 83.984375 58.21875 81.796875 60.773438 81.429688 C 63.328125 81.0625 61.867188 80.699219 61.867188 79.96875 Z M 41.191406 76.808594 C 40.074219 76.148438 39.0625 75.304688 38.085938 74.449219 C 36.136719 72.738281 34.34375 70.859375 32.710938 68.847656 C 29.515625 64.914062 26.710938 60.320312 21.988281 58.046875 C 17.597656 55.929688 11.671875 55.539062 7 57 C 11.238281 55.675781 15.523438 54.535156 19.660156 54.6875 C 15.3125 46.8125 7.394531 46.789062 7.394531 46.789062 C 15.863281 45.871094 19.972656 51.503906 21.644531 54.851562 C 23.898438 55.183594 26.101562 55.980469 28.21875 57.402344 C 27.652344 55.542969 26.035156 52.378906 22 47 C 22 47 31.546875 55.683594 32.039062 60.910156 C 35.089844 64.675781 36.988281 69.464844 41.207031 72.222656 C 41.257812 72.253906 43.035156 73.199219 43 73 C 43 73 43.878906 77.855469 43.878906 77.855469 C 43.902344 77.988281 41.390625 76.929688 41.191406 76.808594 Z M 54.148438 66.6875 C 54.535156 68.171875 57.253906 76.429688 57.027344 79.03125 C 56.953125 79.878906 56.828125 80.722656 56.285156 81.34375 C 56.15625 81.488281 56.007812 81.621094 55.828125 81.738281 C 55.488281 81.964844 52.433594 82.320312 52.367188 81.761719 C 51.4375 74.234375 50.128906 66.589844 48.421875 59.082031 C 46.042969 58.949219 41 55 41 55 C 42.464844 55.980469 46.058594 56.605469 47.886719 56.867188 C 46.257812 50.050781 44.3125 43.363281 42 37 C 43.722656 41.734375 46.074219 46.222656 48.269531 50.761719 C 49.160156 49.929688 52 46.75 52 40 C 52 40 52 49.769531 49.058594 52.410156 C 49.347656 53.019531 51.6875 58.550781 52.417969 60.765625 C 54.0625 59.757812 60.199219 55.210938 63 42 C 63 42 59.503906 63.835938 54.148438 66.6875 Z M 54.148438 66.6875 "/>
<path style=" stroke:none;fill-rule:nonzero;fill:rgb(0%,0%,0%);fill-opacity:1;" d="M 95.089844 40.527344 C 96.230469 39.476562 93.765625 37.195312 93.765625 37.195312 C 91.925781 37.484375 90.984375 33.8125 90.984375 33.8125 C 88.917969 30.804688 85.128906 33.980469 85.128906 33.980469 C 84.402344 33.949219 83.371094 32.355469 83.371094 32.355469 C 83.429688 30.898438 80.089844 32.21875 80.089844 32.21875 C 78.675781 31.0625 76.703125 34.5 76.703125 34.5 C 76.097656 31.550781 73.503906 32.402344 73.503906 32.402344 C 71.011719 30.835938 69.800781 33.617188 69.800781 33.617188 C 69.800781 33.617188 70.636719 35.84375 71.53125 35.882812 C 71.53125 35.882812 74.753906 37.476562 76.804688 40.851562 C 76.804688 40.851562 76.121094 44.109375 77.214844 44.15625 C 77.214844 44.15625 79.539062 45.351562 77.960938 48.207031 L 77.746094 53.3125 C 77.746094 53.3125 74.113281 52.796875 74.070312 53.890625 C 74.023438 54.984375 73.949219 56.808594 73.949219 56.808594 C 73.949219 56.808594 76.609375 56.554688 75.058594 58.683594 C 73.507812 60.8125 71.898438 62.207031 71.851562 63.300781 C 71.804688 64.394531 71.714844 66.582031 71.714844 66.582031 C 71.714844 66.582031 71.167969 68.753906 69.679688 69.421875 C 68.1875 70.089844 67.429688 71.886719 67.382812 72.980469 C 67.3125 74.621094 67.003906 76.152344 65.964844 77.464844 C 65.695312 77.800781 65.371094 78.136719 65 78.359375 C 63.878906 79.046875 63.121094 79.742188 63.09375 80.472656 C 63.085938 80.59375 63.125 80.707031 63.175781 80.8125 C 65.21875 79.339844 69.992188 75.582031 74.382812 69.78125 C 76.335938 66.355469 79.691406 59.222656 80.050781 50.183594 C 80.074219 48.570312 80.046875 47.304688 80.023438 46.605469 C 80.011719 46.421875 80.011719 46.242188 80 46.058594 C 80.003906 46.144531 80.011719 46.339844 80.023438 46.605469 C 80.085938 47.824219 80.097656 49.019531 80.050781 50.183594 C 80.003906 53.722656 79.710938 58.890625 78.570312 63.222656 C 79.695312 61.082031 80.691406 58.769531 81.476562 56.285156 C 81.976562 54.523438 82.324219 53.050781 82.539062 52.027344 C 82.621094 51.625 82.71875 51.234375 82.785156 50.828125 C 82.804688 50.710938 82.828125 50.597656 82.847656 50.480469 C 82.847656 50.480469 82.824219 50.605469 82.785156 50.828125 C 82.734375 51.089844 82.652344 51.503906 82.539062 52.027344 C 82.253906 53.492188 81.90625 54.921875 81.476562 56.285156 C 79.25 64.140625 73.980469 77.578125 63.378906 81.152344 C 63.582031 81.488281 63.582031 81.722656 61.9375 81.886719 C 60.847656 81.996094 60.070312 82.449219 59.539062 82.9375 C 78.0625 80.503906 83.539062 54.652344 83.539062 54.652344 C 84.9375 47.402344 89.601562 49.425781 89.601562 49.425781 C 96.578125 48.617188 91.988281 44.777344 94.222656 43.773438 C 96.457031 42.769531 95.089844 40.527344 95.089844 40.527344 Z M 95.089844 40.527344 "/>
</g>
</svg>
