<?xml version="1.0" encoding="UTF-8"?>
<!-- Created by grConvert v0.1-0 -->
<svg xmlns="http://www.w3.org/2000/svg" xmlns:xlink="http://www.w3.org/1999/xlink" width="100pt" height="125pt" viewBox="0 0 100 125" version="1.1">
<g id="surface25">
<path style=" stroke:none;fill-rule:nonzero;fill:rgb(0%,0%,0%);fill-opacity:1;" d="M 73.6875 22.125 C 72.375 13.1875 64.4375 6.9375 58.6875 5.25 C 52.9375 3.5625 46.1875 9.625 41.1875 13.8125 C 36.1875 18 34.125 23.375 30.75 29.6875 C 27.375 36 27.765625 38.9375 27.4375 40.671875 C 27.222656 41.8125 26.75 46.75 26.609375 47.609375 C 26.46875 48.46875 26.59375 51.46875 26.71875 52.8125 C 26.84375 54.15625 27.171875 56.1875 27.3125 56.640625 C 27.453125 57.09375 27.640625 57.609375 27.859375 58.28125 C 28.078125 58.953125 29.328125 61.09375 29.609375 61.46875 C 29.890625 61.84375 30.140625 62.21875 30.46875 62.453125 C 30.796875 62.6875 30.75 62.8125 30.859375 63.09375 C 30.96875 63.375 31.9375 64.40625 32.34375 64.84375 C 32.75 65.28125 33.765625 65.734375 35.046875 66.671875 C 36.328125 67.609375 39.984375 69.265625 43.53125 71.3125 C 47.078125 73.359375 48.515625 75.8125 50.234375 79.203125 C 51.953125 82.59375 53.796875 85 55.359375 87.390625 C 56.921875 89.78125 57.5 90.4375 57.609375 91.171875 C 57.71875 91.90625 57.3125 92.375 57.421875 92.4375 C 57.53125 92.503906 58.359375 92.921875 58.71875 93 C 59.078125 93.078125 59.125 92.671875 59.265625 92.359375 C 59.40625 92.046875 59.640625 92.1875 60.015625 92.171875 C 60.390625 92.15625 60.4375 91.875 60.4375 91.875 C 60.5 89.25 58 85.125 55.5 81 C 53 76.875 53.5 75.625 53.6875 73.25 C 53.875 70.875 59.4375 66.625 61.25 65 C 63.0625 63.375 62.9375 63.1875 64.1875 62.1875 C 65.4375 61.1875 67.875 57.1875 68.0625 56.5 C 68.25 55.8125 70.5625 50.3125 71.8125 46.4375 C 73.0625 42.5625 75 31.0625 73.6875 22.125 Z M 67.78125 26.875 C 66.65625 29.75 62.09375 35.84375 62.09375 35.84375 C 65.0625 35.6875 67.53125 36.96875 67.53125 36.96875 C 67.53125 36.96875 62.90625 35.625 59.9375 36.96875 C 56.96875 38.3125 52.8125 42.40625 51.96875 46.40625 C 51.125 50.40625 51.214844 64.828125 51.214844 64.828125 C 51.214844 61.34375 54.84375 59.90625 56.84375 57.6875 C 59.65625 54.566406 59.65625 49.1875 59.65625 49.1875 C 60.53125 51.125 58.9375 55.75 58.9375 55.75 C 65.246094 49.875 66.746094 41.625 66.746094 41.625 C 67.09375 48.28125 58.527344 57.53125 55.152344 60.59375 C 51.777344 63.65625 51.714844 68.4375 51.714844 68.4375 C 52.558594 64.40625 59.902344 61.375 59.902344 61.375 C 57.402344 63.25 52.308594 66.96875 52.152344 69.8125 C 51.996094 72.65625 52.527344 77.8125 55.652344 82.3125 C 58.777344 86.8125 59.683594 90.46875 59.496094 91.15625 C 59.3125 91.847656 58.324219 91.765625 58.324219 91.765625 C 58.324219 91.765625 58.757812 89.429688 55.902344 85.84375 C 53.050781 82.261719 50.019531 75.828125 49.0625 74.808594 C 48.101562 73.789062 47.289062 74.039062 46.121094 70.871094 C 44.957031 67.703125 42.351562 67.207031 40.3125 66.226562 C 38.269531 65.246094 38.582031 63.914062 38.582031 63.914062 C 38.707031 65.164062 40.375 65.8125 42.625 66.371094 C 44.875 66.933594 46.5 70.582031 47.289062 71.894531 C 48.082031 73.207031 49.351562 74.4375 49.203125 73.496094 C 49.054688 72.558594 47.539062 70.226562 45.8125 66.332031 C 44.082031 62.4375 40.730469 60.5625 38.164062 59.144531 C 35.601562 57.726562 35.5625 56.082031 35.5625 56.082031 C 35.769531 57.457031 39.605469 59.230469 42.289062 60.894531 C 44.976562 62.5625 45.539062 64.25 46.539062 66.105469 C 47.539062 67.960938 48.6875 70.164062 49.203125 70.042969 C 49.722656 69.917969 48.832031 64.082031 48.476562 62.0625 C 48.125 60.042969 47.101562 56 44.976562 54.542969 C 42.851562 53.082031 42.394531 53 40.226562 51.644531 C 38.0625 50.289062 37.332031 50.480469 36.3125 51.1875 C 35.289062 51.898438 34.5625 54.375 32.914062 53.8125 C 31.269531 53.25 29.519531 50.167969 29.519531 50.167969 C 29.519531 50.167969 31.269531 52.4375 32.351562 52.917969 C 33.433594 53.394531 33.664062 53.039062 34.3125 52.105469 C 34.957031 51.167969 36.148438 50.394531 36.730469 50 C 37.3125 49.605469 36.875 48.332031 36.0625 44.605469 C 35.25 40.875 33.542969 37.4375 33.542969 37.4375 C 34.9375 38.707031 37.292969 48 38.25 49.328125 C 39.207031 50.65625 41.105469 51.082031 42.6875 51.582031 C 44.269531 52.082031 45.1875 53.105469 44.9375 52.1875 C 44.6875 51.269531 44.644531 49.125 45.082031 47.957031 C 46.144531 45.332031 44.605469 42.164062 44.605469 42.164062 C 45.519531 43.269531 46.082031 45.855469 45.542969 47.9375 C 45 50.019531 46.375 53.332031 47 54.519531 C 47.625 55.707031 48.3125 59.5 48.855469 58.269531 C 49.394531 57.039062 49.644531 51.6875 49.894531 49.6875 C 50.144531 47.6875 50.332031 42.417969 49.5 38.5 C 48.667969 34.582031 44.125 30.4375 41.625 28.53125 C 39.125 26.625 39 25.40625 40.15625 23.5 C 41.3125 21.59375 42.15625 15.46875 42.15625 15.46875 C 42.15625 15.46875 41.65625 20.46875 41.03125 22.46875 C 40.40625 24.46875 40.96875 26.625 42.875 27.78125 C 44.78125 28.9375 43.84375 27.125 45.875 24.59375 C 47.90625 22.0625 48.5 16.6875 48.5 16.6875 C 48.6875 19.34375 46.8125 25.6875 45.75 27.28125 C 44.6875 28.875 45.25 30.21875 47.25 32.03125 C 49.25 33.84375 49.59375 35.9375 49.59375 35.9375 C 49.4375 32.71875 51.21875 23.96875 51.71875 21.21875 C 52.21875 18.46875 52.34375 15.9375 51.3125 14.6875 C 50.28125 13.4375 50.308594 11.71875 50.308594 11.71875 C 50.464844 13.5 52.6875 15.875 52.6875 15.875 C 52.6875 15.875 52.875 14.875 54.34375 12.78125 C 55.8125 10.6875 56.53125 6.75 56.53125 6.75 C 56.6875 8.71875 54.6875 13.78125 53.34375 16.21875 C 52 18.65625 52.25 24.78125 51.59375 26.9375 C 50.9375 29.09375 50.8125 35.71875 51.375 37.1875 C 51.9375 38.65625 51.625 42.96875 51.625 42.96875 C 51.625 42.96875 52.75 41.4375 54.75 39.75 C 56.75 38.0625 57.4375 37.09375 57.3125 32.21875 C 57.1875 27.34375 58.59375 26.3125 58.59375 26.3125 C 56.8125 28.90625 58.40625 36.8125 58.40625 36.8125 C 59.96875 36.25 62.0625 34.84375 65.46875 30.15625 C 69.996094 23.3125 68.15625 16.21875 68.15625 16.21875 C 69.40625 18.4375 68.90625 24 67.78125 26.875 Z M 67.78125 26.875 "/>
</g>
</svg>
